<svg width="20.000000" height="20.000000" viewBox="0 0 20 20" fill="none" xmlns="http://www.w3.org/2000/svg" xmlns:xlink="http://www.w3.org/1999/xlink">
	<desc>
			Created with Pixso.
	</desc>
	<defs/>
	<path id="Vector" d="M18.8999 0L1.1001 0C0.808105 0 0.52832 0.115967 0.322266 0.322266C0.115723 0.528564 0 0.80835 0 1.1001L0 18.8999C0 19.0444 0.0283203 19.1875 0.0834961 19.321C0.13916 19.4543 0.220215 19.5757 0.322266 19.6777C0.424316 19.78 0.54541 19.8611 0.679199 19.9163C0.8125 19.9714 0.955566 20 1.1001 20L10.6802 20L10.6802 12.25L8.08008 12.25L8.08008 9.25L10.6802 9.25L10.6802 7C10.626 6.47168 10.6885 5.93823 10.8628 5.43652C11.0371 4.93506 11.3188 4.47754 11.6885 4.09644C12.0581 3.71533 12.5068 3.41968 13.0029 3.23022C13.499 3.04077 14.0303 2.96216 14.5601 3C15.3384 2.99512 16.1162 3.03516 16.8901 3.12012L16.8901 5.82007L15.2998 5.82007C14.04 5.82007 13.7998 6.41992 13.7998 7.29004L13.7998 9.21997L16.7998 9.21997L16.4102 12.22L13.7998 12.22L13.7998 20L18.8999 20C19.0444 20 19.1875 19.9714 19.3208 19.9163C19.4546 19.8611 19.5757 19.78 19.6777 19.6777C19.7798 19.5757 19.8608 19.4543 19.9165 19.321C19.9717 19.1875 20 19.0444 20 18.8999L20 1.1001C20 0.955566 19.9717 0.8125 19.9165 0.678955C19.8608 0.545654 19.7798 0.424316 19.6777 0.322266C19.5757 0.219971 19.4546 0.138916 19.3208 0.0837402C19.1875 0.0285645 19.0444 0 18.8999 0Z" fill="#FFFFFF" fill-opacity="1.000000" fill-rule="nonzero"/>
</svg>
