<svg width="22.013672" height="15.468750" viewBox="0 0 22.0137 15.4688" fill="none" xmlns="http://www.w3.org/2000/svg" xmlns:xlink="http://www.w3.org/1999/xlink">
	<desc>
			Created with Pixso.
	</desc>
	<defs/>
	<path id="Vector" d="M22.0088 5.45166C22.0581 4.02026 21.7451 2.59961 21.0986 1.32178C20.6602 0.797363 20.0518 0.443359 19.3789 0.321777C16.5962 0.0690918 13.8022 -0.0341797 11.0088 0.0117188C8.22559 -0.036377 5.44141 0.0637207 2.66895 0.311768C2.12061 0.411377 1.61328 0.668457 1.20898 1.05176C0.308594 1.88159 0.208984 3.30176 0.108887 4.50171C-0.0361328 6.65918 -0.0361328 8.82422 0.108887 10.9817C0.137695 11.657 0.238281 12.3274 0.408691 12.9817C0.529297 13.4868 0.773438 13.9541 1.11865 14.3418C1.52588 14.7451 2.04541 15.0168 2.60889 15.1216C4.76465 15.3877 6.93701 15.498 9.10889 15.4517C12.6089 15.5017 15.6787 15.4517 19.3086 15.1716C19.8862 15.0732 20.4199 14.8013 20.8389 14.3916C21.1187 14.1116 21.3281 13.7688 21.4487 13.3916C21.8066 12.2942 21.9819 11.1458 21.9688 9.9917C22.0088 9.43164 22.0088 6.05176 22.0088 5.45166ZM8.74902 10.5918L8.74902 4.40161L14.6689 7.51172C13.0088 8.43164 10.8188 9.47168 8.74902 10.5918Z" fill="#FFFFFF" fill-opacity="1.000000" fill-rule="nonzero"/>
</svg>
