<svg width="20.000000" height="16.281250" viewBox="0 0 20 16.2812" fill="none" xmlns="http://www.w3.org/2000/svg" xmlns:xlink="http://www.w3.org/1999/xlink">
	<desc>
			Created with Pixso.
	</desc>
	<defs/>
	<path id="Vector" d="M20 1.95068C19.2485 2.27661 18.4536 2.49219 17.6401 2.59058C18.498 2.07788 19.1411 1.27148 19.4502 0.320557C18.6436 0.800781 17.7607 1.13892 16.8398 1.32056C16.2246 0.653076 15.4048 0.208984 14.5098 0.057373C13.6147 -0.0939941 12.6943 0.0559082 11.8936 0.483887C11.0933 0.911621 10.457 1.59302 10.0854 2.42139C9.71338 3.24976 9.62744 4.17798 9.83984 5.06055C8.20947 4.97803 6.61426 4.55347 5.15869 3.81445C3.70264 3.07544 2.41895 2.03833 1.39014 0.770508C1.0293 1.40088 0.839355 2.1145 0.839844 2.84058C0.838867 3.51489 1.00439 4.1792 1.32178 4.77417C1.63916 5.36914 2.09912 5.87622 2.66016 6.25049C2.00781 6.23291 1.37012 6.05786 0.799805 5.74048L0.799805 5.79053C0.804688 6.7356 1.13623 7.64966 1.7373 8.37866C2.33887 9.10742 3.17334 9.6062 4.1001 9.79053C3.74316 9.89917 3.37305 9.9563 3 9.96069C2.7417 9.95752 2.48438 9.93408 2.22998 9.89062C2.49414 10.7034 3.00439 11.4138 3.69092 11.9229C4.37744 12.4319 5.20557 12.7141 6.06006 12.7307C4.61719 13.866 2.83594 14.4854 1 14.4907C0.665527 14.4917 0.331543 14.4717 0 14.4307C1.87451 15.6409 4.05859 16.2832 6.29004 16.2805C7.82959 16.2966 9.35693 16.0056 10.7832 15.4246C12.209 14.8438 13.5049 13.9844 14.5952 12.8972C15.6855 11.8098 16.5479 10.5161 17.1323 9.09155C17.7173 7.66699 18.0122 6.14038 18 4.60059C18 4.43066 18 4.25049 18 4.07056C18.7847 3.48535 19.4614 2.76807 20 1.95068Z" fill="#FFFFFF" fill-opacity="1.000000" fill-rule="nonzero"/>
</svg>
