<svg width="20.000000" height="20.000000" viewBox="0 0 20 20" fill="none" xmlns="http://www.w3.org/2000/svg" xmlns:xlink="http://www.w3.org/1999/xlink">
	<desc>
			Created with Pixso.
	</desc>
	<defs/>
	<path id="Vector" d="M10 7.52002C9.50928 7.52002 9.02979 7.66553 8.62207 7.93799C8.21436 8.21045 7.89648 8.5979 7.70898 9.05103C7.521 9.50415 7.47217 10.0027 7.56787 10.4839C7.66357 10.9648 7.89941 11.4067 8.24658 11.7537C8.59326 12.1003 9.03516 12.3367 9.51611 12.4324C9.99707 12.5281 10.4961 12.479 10.9492 12.2913C11.4023 12.1035 11.7896 11.7856 12.062 11.3779C12.3345 10.97 12.48 10.4905 12.48 10C12.48 9.67432 12.416 9.35181 12.291 9.05103C12.1665 8.75 11.9839 8.47656 11.7534 8.24634C11.5234 8.01611 11.25 7.8335 10.9492 7.70874C10.6479 7.58423 10.3257 7.52002 10 7.52002ZM19.9302 5.07007C19.9248 4.29785 19.7827 3.53247 19.5098 2.81006C19.3091 2.28125 18.9985 1.80103 18.5986 1.40112C18.1987 1.00122 17.7188 0.690674 17.1899 0.48999C16.4673 0.217529 15.7021 0.0751953 14.9302 0.0700684C13.6401 0 13.2598 0 10 0C6.74023 0 6.35986 0 5.06982 0.0700684C4.29785 0.0751953 3.53271 0.217529 2.81006 0.48999C2.28125 0.690674 1.80127 1.00122 1.40137 1.40112C1.00146 1.80103 0.690918 2.28125 0.490234 2.81006C0.217285 3.53247 0.0751953 4.29785 0.0698242 5.07007C0 6.36011 0 6.73999 0 10C0 13.26 0 13.6399 0.0698242 14.9299C0.0805664 15.7051 0.222656 16.4724 0.490234 17.2C0.689941 17.7263 1 18.2036 1.3999 18.6001C1.79834 19.0022 2.2793 19.313 2.81006 19.51C3.53271 19.7825 4.29785 19.9248 5.06982 19.9299C6.35986 20 6.74023 20 10 20C13.2598 20 13.6401 20 14.9302 19.9299C15.7021 19.9248 16.4673 19.7825 17.1899 19.51C17.7207 19.313 18.2017 19.0022 18.6001 18.6001C19 18.2036 19.3101 17.7263 19.5098 17.2C19.7822 16.4739 19.9243 15.7056 19.9302 14.9299C20 13.6399 20 13.26 20 10C20 6.73999 20 6.36011 19.9302 5.07007ZM17.3901 13.0701C17.3579 13.687 17.2261 14.2949 17 14.8701C16.8057 15.3496 16.5171 15.7854 16.1514 16.1514C15.7856 16.5173 15.3496 16.8059 14.8701 17C14.2896 17.2136 13.6782 17.3318 13.0601 17.3501C12.27 17.3501 12.0601 17.3501 10 17.3501C7.93994 17.3501 7.72998 17.3501 6.93994 17.3501C6.32178 17.3318 5.71045 17.2136 5.12988 17C4.63428 16.8157 4.18604 16.5217 3.81982 16.1399C3.45752 15.7812 3.17773 15.3479 3 14.8701C2.78564 14.29 2.67041 13.6782 2.66016 13.0601C2.66016 12.27 2.66016 12.0601 2.66016 10C2.66016 7.93994 2.66016 7.72998 2.66016 6.93994C2.67041 6.32178 2.78564 5.70996 3 5.12988C3.18408 4.63403 3.47852 4.18628 3.85986 3.82007C4.22021 3.45972 4.65332 3.18018 5.12988 3C5.71045 2.78638 6.32178 2.66821 6.93994 2.6499C7.72998 2.6499 7.93994 2.6499 10 2.6499C12.0601 2.6499 12.27 2.6499 13.0601 2.6499C13.6782 2.66821 14.2896 2.78638 14.8701 3C15.3657 3.18433 15.814 3.47827 16.1802 3.86011C16.5425 4.21875 16.8223 4.6521 17 5.12988C17.2134 5.71045 17.332 6.32178 17.3501 6.93994C17.3501 7.72998 17.3501 7.93994 17.3501 10C17.3501 12.0601 17.4199 12.27 17.3901 13.0601L17.3901 13.0701ZM15.79 5.62988C15.6709 5.30688 15.4834 5.01367 15.2397 4.77026C14.9966 4.52686 14.7031 4.33911 14.3799 4.21997C13.9365 4.06616 13.4692 3.9917 13 4C12.2202 4 12 4 10 4C8 4 7.77979 4 7 4C6.52832 4.00464 6.06104 4.09253 5.62012 4.26001C5.30176 4.37354 5.01172 4.55371 4.76855 4.78809C4.52539 5.02271 4.33496 5.30615 4.20996 5.62012C4.06494 6.06543 3.99365 6.53149 4 7C4 7.78003 4 8 4 10C4 12 4 12.22 4 13C4.00977 13.4712 4.09766 13.9375 4.25977 14.3799C4.37891 14.7031 4.56689 14.9963 4.81006 15.2397C5.05371 15.4832 5.34717 15.6709 5.66992 15.79C6.09668 15.947 6.54541 16.0347 7 16.05C7.77979 16.05 8 16.05 10 16.05C12 16.05 12.2202 16.05 13 16.05C13.4717 16.0454 13.939 15.9573 14.3799 15.79C14.7031 15.6709 14.9966 15.4832 15.2397 15.2397C15.4834 14.9963 15.6709 14.7031 15.79 14.3799C15.9575 13.939 16.0454 13.4717 16.0498 13C16.0498 12.22 16.0498 12 16.0498 10C16.0498 8 16.0498 7.78003 16.0498 7C16.0503 6.52783 15.9619 6.05981 15.79 5.62012L15.79 5.62988ZM10 13.8201C9.49902 13.8201 9.00244 13.7212 8.53955 13.5291C8.07666 13.3369 7.65625 13.0554 7.30225 12.7004C6.94824 12.3457 6.66797 11.9246 6.47705 11.4612C6.28613 10.9978 6.18848 10.5012 6.18994 10C6.18994 9.24414 6.41406 8.50513 6.83447 7.87671C7.25488 7.24829 7.85205 6.75854 8.55029 6.46973C9.24902 6.18091 10.0176 6.10596 10.7588 6.25415C11.5 6.40234 12.1807 6.76709 12.7148 7.30249C13.2485 7.83765 13.6113 8.51929 13.7578 9.26099C13.9043 10.0027 13.8271 10.771 13.5361 11.4688C13.2456 12.1667 12.7544 12.7625 12.125 13.1812C11.4956 13.5996 10.7559 13.822 10 13.8201ZM14 6.92993C13.7788 6.90649 13.5742 6.80225 13.4258 6.63696C13.2769 6.47168 13.1948 6.25732 13.1948 6.03491C13.1948 5.81274 13.2769 5.59839 13.4258 5.43311C13.5742 5.26782 13.7788 5.16333 14 5.13989C14.2212 5.16333 14.4258 5.26782 14.5742 5.43311C14.7231 5.59839 14.8052 5.81274 14.8052 6.03491C14.8052 6.25732 14.7231 6.47168 14.5742 6.63696C14.4258 6.80225 14.2212 6.90649 14 6.92993Z" fill="#FFFFFF" fill-opacity="1.000000" fill-rule="nonzero"/>
</svg>
